<svg xmlns="http://www.w3.org/2000/svg" height="30" width="70" viewBox="0 0 70 30"><path style='fill:hsl(30, 100%, 50%)' d="m49.13-.02930s-8.76-.00017-14.6.4316c-.82.0994-2.6.1067-4.18 1.807-1.26 1.295-1.66 4.238-1.66 4.238s-.42 3.455-.42 6.913v3.23c0 3.46.42 6.91.42 6.91s.40 2.94 1.66 4.24c1.59 1.71 3.67 1.65 4.61 1.83 3.34.33 14.18.43 14.18.43s8.77-.01 14.6-.45c.82-.09 2.6-.10 4.18-1.8 1.25-1.3 1.66-4.24 1.66-4.24s.42-3.46.42-6.91v-3.24c0-3.454-.42-6.907-.42-6.907l.01-.006s-.41-2.941-1.66-4.238c-1.58-1.7-3.36-1.708-4.18-1.807-5.84-.4315-14.6-.4313-14.6-.4313h-.02zm-49.13 4.912c.5981 1.805 3.494 11.49 3.494 11.49v7.9h2.795v-7.9l3.492-11.49-2.933.003-1.953 7.567-1.961-7.567h-2.934zm40.53.142v2.729h-3.08v16.52h-2.79v-16.52l-2.94.004v-2.725l8.81-.004zm9.08 0h2.51v6.275c.82-1.03 1.74-1.622 2.67-1.622 1.01 0 1.69.602 2.03 1.672.17.58.33 1.51.33 2.87v5.74c0 1.33-.11 2.26-.27 2.87-.34 1.07-1.08 1.62-2.09 1.62-.90 0-1.82-.55-2.66-1.63l-.01 1.45h-2.51v-19.24zm-36.61 4.633c-1.27 0-2.23.402-2.94 1.402-.543.73-.835 1.91-.835 3.46l-.002 5.16c0 1.54.259 2.6.807 3.33.70.99 1.85 1.51 2.97 1.51 1.11 0 2.28-.52 2.99-1.51.53-.73.78-1.79.78-3.33v-5.17-.01c0-1.55-.30-2.71-.84-3.44-.71-1-1.82-1.402-2.93-1.402zm49.71.043c1.27 0 2.28.519 2.99 1.499.53.73.83 1.85.83 3.38v2.94h-5.04v2.58c-.01 1.32.36 1.99 1.22 1.99.63 0 .99-.35 1.14-1.04.02-.14.02-.76.02-1.81h2.65v.41c0 .84-.07 1.43-.09 1.69-.09.58-.28 1.1-.59 1.56-.70 1.04-1.74 1.56-3.06 1.56-1.33 0-2.33-.49-3.06-1.48-.54-.71-.89-1.78-.89-3.31v-5.02c0-1.54.32-2.72.86-3.45.73-.98 1.73-1.499 3.02-1.499zm-43.99.065v11.48c0 1 .13 1.68.30 2.11.28.72.85 1.11 1.67 1.11.93 0 1.78-.59 2.79-1.78v1.58h2.65v-14.5l-2.65-.004v11.05c-.57.82-1.02 1.27-1.53 1.27-.34 0-.51-.15-.57-.55v-1-10.77l-2.66-.004zm21.39.144h2.65v10.63 1c.06.40.23.55.57.55.50 0 .97-.45 1.53-1.27v-10.91h2.65v14.36h-2.65v-1.58c-1.01 1.19-1.86 1.78-2.79 1.78-.82 0-1.39-.39-1.67-1.11-.17-.43-.29-1.11-.29-2.11v-11.34zm22.58 2.16c-.85 0-1.2.37-1.2 1.71v1.59h2.37v-1.57c0-1.33-.33-1.73-1.17-1.73zm-9.25 0c-.42 0-.90.23-1.32.66v8.71c.42.43.90.65 1.32.65.73 0 1.06-.55 1.06-1.98v-6.18c0-1.43-.33-1.86-1.06-1.86zm-40.44.04c.82 0 1.25.67 1.12 2.11v5.74h-.01c.14 1.44-.29 2.15-1.11 2.15-.83 0-1.26-.71-1.12-2.15v-5.74c-.14-1.44.29-2.11 1.12-2.11z"/></svg>
