<svg xmlns="http://www.w3.org/2000/svg" viewBox="0 0 120 40" width="120" height="40" >
<path id="nwsome-google-logo" style="fill:#de5e1e" d="m15.55 0c-8.443 0-15.55 6.967-15.55 15.52s7.107 15.52 15.55 15.52c4.559 0 8-1.514 10.69-4.353 2.769-2.803 3.629-6.737 3.629-9.922 0-0.9461-0.07155-1.821-0.2096-2.56h-14.11v4.241l10.01-0.0045c-0.3072 2.339-1.086 4.051-2.27 5.25-1.46 1.478-3.74 3.104-7.742 3.104-6.171 0-11-5.034-11-11.28s4.826-11.28 11-11.28c3.33 0 5.761 1.324 7.556 3.028l2.96-2.992c-2.51-2.42-5.84-4.276-10.52-4.276zm80.23 1.14v29.3h4.23v-29.3h-4.23zm15.37 9.913c-5.089 0-9.312 4.051-9.312 9.991 0 5.606 4.189 9.991 9.798 9.991 4.523 0 7.141-2.803 8.228-4.43l-3.366-2.271c-1.122 1.668-2.653 2.766-4.862 2.766-2.204 0-3.775-1.023-4.786-3.028l13.1-5.53-0.4-1.14c-0.8192-2.23-3.326-6.358-8.45-6.358zm-69.68 0.0045c-5.459 0-9.904 4.2-9.904 9.991 0 5.755 4.448 9.991 9.904 9.991 5.459 0 9.904-4.241 9.904-9.991 0-5.796-4.448-9.991-9.904-9.991zm21.37 0c-5.459 0-9.904 4.204-9.904 9.991 0 5.755 4.448 9.991 9.904 9.991 5.459 0 9.904-4.241 9.904-9.991 0-5.796-4.448-9.991-9.904-9.991zm20.92 0c-4.938 0-9.462 4.39-9.462 10.03 0 5.602 4.523 9.956 9.462 9.956 2.359 0 4.229-1.058 5.2-2.271h0.1513v1.437c0 3.826-2.017 5.858-5.271 5.858-2.653 0-4.3-1.919-4.973-3.546l-3.822 1.583c1.086 2.643 3.972 5.887 8.756 5.887 5.084 0 9.383-3.015 9.383-10.4v-17.94h-4.118v1.628h-0.1513c-0.9754-1.177-2.845-2.236-5.2-2.236zm27.54 3.863c1.719 0 3.179 0.8694 3.664 2.117l-8.824 3.709c-0.1113-3.857 2.956-5.827 5.16-5.827zm-69.83 0.07657c2.991 0 5.57 2.46 5.57 6.056 0 3.556-2.577 6.056-5.57 6.056-2.991 0-5.57-2.496-5.57-6.056 0-3.596 2.577-6.056 5.57-6.056zm21.37 0c2.991 0 5.57 2.46 5.57 6.056 0 3.556-2.577 6.056-5.57 6.056-2.991 0-5.57-2.496-5.57-6.056 0-3.596 2.577-6.056 5.57-6.056zm21.3 0c2.952 0 5.271 2.573 5.271 6.093 0 3.483-2.32 6.021-5.271 6.021-2.991 0-5.498-2.536-5.498-6.021 0-3.52 2.506-6.093 5.498-6.093z"/>
</svg>
