<svg xmlns="http://www.w3.org/2000/svg" viewBox="0 0 623.27502 261.35001" width="623.3" height="261.4">
    <g transform="matrix(1.25 0 0 -1.25 0 261.4)">
        <g transform="scale(.1)">
            <path id="svg_logo_path" style="fill:#de5e1e" d="m439.6 0.003906s-78.4-0.000937-130.6 3.758c-7.3 0.865-23.2 0.941-37.4 15.74-11.2 11.28-14.8 36.88-14.8 36.88s-3.8 30.07-3.8 60.12v28.2c0 30.1 3.8 60.2 3.8 60.2s3.6 25.6 14.8 36.8c14.2 14.8 32.8 14.4 41.1 15.9 29.9 2.9 126.9 3.7 126.9 3.7s78.5-0.1 130.7-3.8c7.3-0.9 23.2-1 37.4-15.8 11.2-11.2 14.9-36.8 14.9-36.8s3.7-30.1 3.7-60.2v-28.2c0-30.05-3.7-60.12-3.7-60.12s-3.7-25.6-14.9-36.88c-14.2-14.8-30.1-14.87-37.4-15.74-52.2-3.757-130.6-3.756-130.6-3.756l-0.1-0.000094zm-439.6 42.75c5.344 15.71 31.25 99.95 31.25 99.95v68.8h25v-68.8l31.25-99.95h-26.25l-17.46 65.85-17.54-65.85h-26.25zm362.5 1.25v23.75h-27.5v143.8l-25-0.1v-143.8l-26.2 0.05v-23.72l78.7-0.03zm81.3 0h22.4v54.61c7.3-9 15.6-14.12 23.9-14.12 9 0 15.1 5.21 18.1 14.56 1.5 5.05 3 13.15 3 24.95v50c0 11.6-0.9 19.7-2.4 25-3.1 9.3-9.7 14.1-18.7 14.1-8 0-16.3-4.8-23.8-14.2l-0.1 12.6h-22.4v-167.5zm-327.6 40.33c-11.3 0-19.88 3.53-26.2 12.17-4.87 6.4-7.48 16.6-7.48 30.1l-0.02 44.9c0 13.4 2.32 22.7 7.19 29 6.32 8.6 16.51 13.2 26.51 13.2s20.5-4.6 26.8-13.2c4.8-6.3 7-15.6 7-29v-45c0-13.5-2.7-23.6-7.5-30-6.3-8.64-16.3-12.17-26.3-12.17zm444.8 0.36c11.3 0 20.3 4.52 26.7 13.07 4.7 6.34 7.3 16.04 7.3 29.44v25.5h-45v22.5c-0.1 11.5 3.2 17.3 11 17.3 5.5 0 8.8-3 10.1-9 0.2-1.3 0.2-6.7 0.2-15.8h23.7v3.6c0 7.3-0.6 12.4-0.8 14.7-0.8 5-2.5 9.6-5.3 13.6-6.3 9-15.5 13.5-27.4 13.5-11.8 0-20.8-4.3-27.4-12.8-4.8-6.2-7.9-15.5-7.9-28.8v-43.8c0-13.3 2.9-23.6 7.7-29.94 6.5-8.55 15.5-13.07 27.1-13.07zm-393.5 0.56v99.95c0 8.7 1.1 14.6 2.6 18.4 2.6 6.2 7.6 9.7 14.9 9.7 8.4 0 16-5.2 25-15.6v13.8h23.8v-126.2l-23.8-0.05v96.25c-5 7.1-9.1 11-13.7 11-3 0-4.5-1.2-5.1-4.8v-8.7-93.75h-23.7zm191.3 1.25h23.7v92.5 8.7c0.6 3.6 2 4.8 5.1 4.8 4.5 0 8.6-3.9 13.6-11v-95h23.8v125h-23.8v-13.8c-9 10.4-16.6 15.6-24.9 15.6-7.3 0-12.4-3.5-14.9-9.7-1.6-3.8-2.6-9.7-2.6-18.4v-98.7zm119.2 18.8c-3.7 0-8 2-11.8 5.7v75.8c3.8 3.8 8.1 5.7 11.8 5.7 6.6 0 9.5-4.8 9.5-17.3v-53.7c0-12.5-2.9-16.2-9.5-16.2zm82.8 0c-7.6 0-10.8 3.2-10.8 14.9v13.8h21.2v-13.6c0-11.6-2.9-15.1-10.4-15.1zm-444.6 0.3c7.4 0 11.3 5.9 10.1 18.4l-0.1 50c1.3 12.5-2.6 18.7-10 18.7-7.3 0-11.2-6.2-10-18.7v-50c-1.2-12.5 2.7-18.4 10-18.4z" transform="matrix(8 0 0 -8 0 2091)"/>
        </g>
    </g>
</svg>
